<svg width="28" height="24" viewBox="0 0 28 24" fill="none" xmlns="http://www.w3.org/2000/svg">
<path d="M13.9998 17.6H5.59977V10.6H2.79977V21.8C2.79977 22.5744 3.4254 23.2 4.19977 23.2H15.3998C16.1742 23.2 16.7998 22.5744 16.7998 21.8V10.6H13.9998V17.6ZM27.7635 7.02124L24.0316 1.42124C23.7691 1.03186 23.3316 0.799988 22.8635 0.799988H5.13602C4.6679 0.799988 4.2304 1.03186 3.97227 1.42124L0.2404 7.02124C-0.38085 7.95311 0.284149 9.19999 1.40415 9.19999H26.5998C27.7154 9.19999 28.3804 7.95311 27.7635 7.02124ZM22.3998 22.5C22.3998 22.885 22.7148 23.2 23.0998 23.2H24.4998C24.8848 23.2 25.1998 22.885 25.1998 22.5V10.6H22.3998V22.5Z" fill="#2AC17E"/>
</svg>
