<svg width="28" height="28" viewBox="0 0 28 28" fill="none" xmlns="http://www.w3.org/2000/svg">
<g clip-path="url(#clip0_1_92)">
<path d="M27.1758 5.18262C25.4787 4.47081 23.7803 4.2 22.0828 4.2C16.6941 4.19956 11.3059 6.92737 5.91719 6.92737C4.56575 6.92737 3.21519 6.75587 1.86375 6.32712C1.71194 6.279 1.55969 6.25625 1.41094 6.25625C0.658 6.25625 0 6.839 0 7.64793V21.5281C0 22.0806 0.316313 22.6043 0.82425 22.8169C2.52131 23.5292 4.21969 23.8 5.91719 23.8C11.3059 23.8 16.6946 21.0722 22.0833 21.0722C23.4347 21.0722 24.7852 21.2437 26.1367 21.6724C26.2885 21.7206 26.4408 21.7433 26.5895 21.7433C27.3424 21.7433 28.0004 21.1606 28.0004 20.3516V6.47193C28 5.91893 27.6837 5.39568 27.1758 5.18262ZM2.1 8.58462C2.98025 8.80512 3.899 8.91581 4.844 8.97531C4.58675 10.2611 3.45625 11.2302 2.1 11.2302V8.58462ZM2.1 21.0534V18.963C3.60369 18.963 4.82038 20.1561 4.88731 21.6492C3.90163 21.5701 2.98025 21.3732 2.1 21.0534ZM14 18.2C12.0667 18.2 10.5 16.3192 10.5 14C10.5 11.6804 12.0671 9.8 14 9.8C15.9329 9.8 17.5 11.6804 17.5 14C17.5 16.3201 15.9324 18.2 14 18.2ZM25.9 19.4154C25.1335 19.2233 24.3377 19.1157 23.5235 19.0461C23.7803 17.9051 24.7266 17.0389 25.9 16.8901V19.4154ZM25.9 9.08556C24.5486 8.9145 23.4999 7.78618 23.4583 6.39275C24.3132 6.48768 25.1248 6.66531 25.9 6.94662V9.08556Z" fill="#50C878"/>
</g>
<defs>
<clipPath id="clip0_1_92">
<rect width="28" height="28" rx="4" fill="white"/>
</clipPath>
</defs>
</svg>
